# xmcd CD database file
#
# Track frame offsets:
#	150
#	18681
#	45841
#	69271
#	90340
#	104369
#	128590
#	150509
#	169599
#	197671
#	232957
#	257303
#	277900
#	310132
#
# Disc length: 4452 seconds
#
# Revision: 0
# Processed by: cddbd v1.5.1PL0 Copyright (c) Steve Scherf et al.
# Submitted via: CDex 1.51
#
DISCID=9c11620e
DTITLE=Varis - Jazzi noves músiques de Catalunya 8
DYEAR=2001
DGENRE=Jazz
TTITLE0=Shamtime-The cat
TTITLE1=Alfons Carrascosa group-Arco iris
TTITLE2=José Luís Gámez Quintet-Aire puro
TTITLE3=Raül Reverter Quartet-sexta rumba menor
TTITLE4=Loti Lewis-A slice of life
TTITLE5=Elisabet Raspall Grup-Oh! Sambesadino
TTITLE6=Alfons Enjuanes Quartet-El caminito
TTITLE7=Gorka Benítez Trío-Nada sin tu voz
TTITLE8=Joan Monné Trío-Lluna
TTITLE9=Orquestra de Cambra del Teatre Lliure-One for Duke
TTITLE10=Narcís Vidal Trío-Beguine
TTITLE11=Xavi Maureta Condició Humana-No ho deixis
TTITLE12=Cesc Miralta Quartet-Sol de nit
TTITLE13=Toni Solà&Ignasi Terraza Trío-You've Changed
EXTD=YEAR: 2001
EXTT0=
EXTT1=
EXTT2=
EXTT3=
EXTT4=
EXTT5=
EXTT6=
EXTT7=
EXTT8=
EXTT9=
EXTT10=
EXTT11=
EXTT12=
EXTT13=
PLAYORDER=
